<svg width="65" height="73" viewBox="0 0 65 73" fill="none" xmlns="http://www.w3.org/2000/svg">
<path d="M4 70C3.25 70 2.9375 69.8281 3.0625 69.4844C3.0625 69.3594 3.125 69.2188 3.25 69.0625L27.4375 36.3906L3.25 3.76562C3.125 3.60938 3.0625 3.46875 3.0625 3.34375C3.0625 3 3.375 2.8125 4 2.78125H11.4062C12.1875 2.78125 12.8281 3.10938 13.3281 3.76562L32.5 29.6875L51.7188 3.76562C52.2188 3.14063 52.8594 2.8125 53.6406 2.78125H61C61.6562 2.78125 61.9844 2.96875 61.9844 3.34375C61.9844 3.46875 61.9219 3.60938 61.7969 3.76562L37.5156 36.3906L61.7969 69.0625C61.9219 69.2188 61.9844 69.3594 61.9844 69.4844C61.9844 69.8281 61.6562 70 61 70H53.6406C52.8594 70 52.2188 69.6875 51.7188 69.0625L32.5 43.2344L13.3281 69.0625C12.8281 69.6875 12.1875 70 11.4062 70H4Z" fill="#000000"/>
</svg>
